<?xml version="1.0" standalone="no"?>
<!DOCTYPE svg PUBLIC "-//W3C//DTD SVG 20010904//EN"
 "http://www.w3.org/TR/2001/REC-SVG-20010904/DTD/svg10.dtd">
<svg version="1.0" xmlns="http://www.w3.org/2000/svg"
 width="700.000000pt" height="700.000000pt" viewBox="0 0 700.000000 700.000000"
 preserveAspectRatio="xMidYMid meet">
<metadata>
Created by potrace 1.14, written by Peter Selinger 2001-2017
</metadata>
<g transform="translate(0.000000,700.000000) scale(0.100000,-0.100000)"
fill="#000000" stroke="none">
<path d="M2585 6833 c-118 -25 -237 -94 -308 -179 -27 -32 -74 -118 -85 -155
-11 -40 -8 -214 5 -240 6 -13 20 -41 29 -63 21 -46 116 -151 156 -172 l28 -15
0 -1276 0 -1276 -47 -76 c-27 -42 -52 -84 -58 -94 -12 -22 -160 -261 -680
-1102 -224 -363 -413 -669 -419 -680 -11 -19 -89 -145 -148 -238 -15 -23 -33
-53 -41 -67 -7 -14 -59 -98 -114 -186 -112 -181 -135 -241 -135 -347 0 -135
41 -229 146 -332 96 -95 190 -143 335 -170 111 -22 4398 -22 4506 0 198 39
359 154 433 308 37 77 45 114 44 198 -1 115 -30 175 -262 549 -117 190 -220
356 -227 370 -8 14 -45 73 -81 132 -76 122 -481 777 -557 901 -28 45 -155 251
-283 458 l-232 377 0 1275 0 1275 34 21 c74 46 154 153 180 241 73 247 -100
498 -389 564 -101 23 -1722 22 -1830 -1z m1442 -546 c1 -2 3 -670 3 -1485 0
-1421 1 -1483 19 -1524 10 -24 53 -100 95 -168 42 -69 80 -132 85 -140 5 -8
74 -118 152 -245 78 -126 235 -381 349 -565 114 -184 242 -393 286 -463 43
-70 86 -140 95 -155 9 -15 116 -189 238 -386 121 -197 221 -363 221 -367 0 -5
4 -9 8 -9 5 0 16 -16 25 -35 l17 -35 -948 0 c-2665 -1 -3285 -1 -3289 4 -3 2
60 109 140 238 154 250 450 729 914 1483 357 579 388 630 437 708 59 95 85
149 90 192 2 22 5 696 5 1497 l1 1457 43 3 c54 4 1009 -1 1014 -5z"/>
</g>
</svg>
