<svg xmlns="http://www.w3.org/2000/svg" version="1.1" xmlns:xlink="http://www.w3.org/1999/xlink" xmlns:svgjs="http://svgjs.com/svgjs" width="4096" height="2048" preserveAspectRatio="none" viewBox="0 0 4096 2048"><g mask="url(&quot;#SvgjsMask1056&quot;)" fill="none"><rect width="4096" height="2048" x="0" y="0" fill="#0e2a47"></rect><path d="M587.6958500059148 975.2536558100455L910.6044078007368 1287.0828253616457 1222.4335773523371 964.1742675668238 899.5250195575152 652.3450980152236z" fill="rgba(28, 83, 142, 0.4)" class="triangle-float2"></path><path d="M764.259,1877.141C846.6,1877.956,930.124,1840.822,966.772,1767.082C1000.627,1698.962,964.366,1622.309,922.458,1558.825C885.776,1503.259,830.838,1459.679,764.259,1460.308C698.642,1460.927,646.766,1506.65,611.151,1561.764C571.24,1623.527,536.454,1696.99,568.569,1763.142C603.905,1835.929,683.352,1876.341,764.259,1877.141" fill="rgba(28, 83, 142, 0.4)" class="triangle-float2"></path><path d="M410.352,393.367C465.151,395.75,524.407,389.287,555.843,344.338C591.555,293.276,598.959,223.372,566.397,170.246C534.959,118.954,470.341,102.426,410.352,106.963C358.168,110.91,315.837,145.35,290.457,191.117C265.932,235.343,259.455,289.068,285.243,332.57C310.584,375.318,360.704,391.208,410.352,393.367" fill="rgba(28, 83, 142, 0.4)" class="triangle-float2"></path><path d="M1357.191,2381.968C1555.019,2394.163,1773.685,2355.149,1875.974,2185.379C1980.586,2011.754,1913.444,1798.725,1815.55,1621.226C1713.208,1435.662,1569.014,1250.971,1357.191,1244.736C1137.398,1238.266,943.805,1394.114,849.583,1592.792C766.588,1767.797,833.723,1964.69,938.502,2127.59C1033.186,2274.795,1182.496,2371.199,1357.191,2381.968" fill="rgba(28, 83, 142, 0.4)" class="triangle-float1"></path><path d="M2901.422,902.994C3042.391,913.156,3201.669,898.636,3277.134,779.135C3356.131,654.041,3323.16,489.117,3240.108,366.677C3166.499,258.159,3032.543,226.548,2901.422,225.24C2767.264,223.901,2617.961,243.641,2550.824,359.8C2483.652,476.02,2536.326,618.195,2609.12,730.978C2674.829,832.784,2780.566,894.282,2901.422,902.994" fill="rgba(28, 83, 142, 0.4)" class="triangle-float2"></path><path d="M1894.707359914531 2326.893833288384L2211.4837312333566 2253.760245450687 1943.3951638173983 1815.1624823912975z" fill="rgba(28, 83, 142, 0.4)" class="triangle-float3"></path><path d="M684.0481617037782 400.2797226014195L973.1128511868601 541.26599186599 825.0344309683487 111.21503311833754z" fill="rgba(28, 83, 142, 0.4)" class="triangle-float2"></path><path d="M1941.355791136659 632.444968811795L2263.827734902826 1003.4065051355431 2634.789271226574 680.9345613693763 2312.3173274604073 309.97302504562816z" fill="rgba(28, 83, 142, 0.4)" class="triangle-float1"></path><path d="M3455.3380737911393 990.6906839181136L3415.1014223974735 1244.734902600323 3816.2860761176203 1178.067770349717z" fill="rgba(28, 83, 142, 0.4)" class="triangle-float1"></path><path d="M1945.5223375848052 412.9992236826275L2041.2019535077757 863.1364256171672 2395.659539519345 317.319607759657z" fill="rgba(28, 83, 142, 0.4)" class="triangle-float2"></path><path d="M2168.258,1105.193C2365.573,1098.578,2485.986,904.497,2570.141,725.905C2640.275,577.068,2637.23,412.738,2563.977,265.41C2480.181,96.878,2356.411,-77.545,2168.258,-82.366C1974.714,-87.326,1827.697,73.789,1735.781,244.187C1649.163,404.762,1634.937,591.475,1716.829,754.511C1808.496,937.008,1964.148,1112.035,2168.258,1105.193" fill="rgba(28, 83, 142, 0.4)" class="triangle-float3"></path><path d="M2535.484,2667.67C2751.936,2675.782,2971.733,2573.659,3069.328,2380.288C3160.1,2200.436,3074.306,1992.835,2959.694,1827.154C2862.7,1686.941,2705.604,1619.825,2535.484,1608.571C2337.243,1595.457,2108.401,1596.316,2001.481,1763.766C1889.464,1939.2,1960.852,2163.502,2066.724,2342.711C2170.374,2518.158,2331.85,2660.038,2535.484,2667.67" fill="rgba(28, 83, 142, 0.4)" class="triangle-float2"></path><path d="M1382.4544915614606 522.9006395762815L1454.259118730434 894.1922489102396 1707.4988558384227 681.6988789034948z" fill="rgba(28, 83, 142, 0.4)" class="triangle-float3"></path></g><defs><mask id="SvgjsMask1056"><rect width="4096" height="2048" fill="#ffffff"></rect></mask><style>
            @keyframes float1 {
                0%{transform: translate(0, 0)}
                50%{transform: translate(-10px, 0)}
                100%{transform: translate(0, 0)}
            }

            .triangle-float1 {
                animation: float1 5s infinite;
            }

            @keyframes float2 {
                0%{transform: translate(0, 0)}
                50%{transform: translate(-5px, -5px)}
                100%{transform: translate(0, 0)}
            }

            .triangle-float2 {
                animation: float2 4s infinite;
            }

            @keyframes float3 {
                0%{transform: translate(0, 0)}
                50%{transform: translate(0, -10px)}
                100%{transform: translate(0, 0)}
            }

            .triangle-float3 {
                animation: float3 6s infinite;
            }
        </style></defs></svg>