<svg xmlns="http://www.w3.org/2000/svg" version="1.1" xmlns:xlink="http://www.w3.org/1999/xlink" xmlns:svgjs="http://svgjs.com/svgjs" width="1440" height="560" preserveAspectRatio="none" viewBox="0 0 1440 560"><g mask="url(&quot;#SvgjsMask1037&quot;)" fill="none"><rect width="1440" height="560" x="0" y="0" fill="url(#SvgjsLinearGradient1038)"></rect><path d="M171.4480504685716 290.957718506135L87.51464567697211 253.58815903730198 73.42700886952233 398.17304595911776z" fill="rgba(243, 223, 162, 0.4)" class="triangle-float3"></path><path d="M1357.6925705933277 301.8278690930913L1476.311932956507 224.9561771380397 1367.2130805536556 166.94728833199997z" fill="rgba(243, 223, 162, 0.4)" class="triangle-float3"></path><path d="M1331.549245241944 258.40435654515534L1478.4509668802875 227.3257278332115 1392.3382649992222 128.264396128793z" fill="rgba(243, 223, 162, 0.4)" class="triangle-float2"></path><path d="M1411.048,300.165C1455.126,298.497,1486.134,263.054,1509.472,225.623C1534.803,184.996,1560.934,137.48,1539.021,94.912C1515.875,49.949,1461.561,32.003,1411.048,34.422C1364.656,36.644,1325.479,65.768,1302.679,106.231C1280.331,145.891,1276.614,193.852,1298.82,233.592C1321.561,274.288,1364.462,301.927,1411.048,300.165" fill="rgba(243, 223, 162, 0.4)" class="triangle-float3"></path><path d="M1375.6411261675316 43.4662136004176L1289.1555000380456 66.63996727871336 1312.3292537163416 153.1255934081993 1398.8148798458274 129.95183972990355z" fill="rgba(243, 223, 162, 0.4)" class="triangle-float2"></path><path d="M146.127,497.679C169.847,498.954,195.905,494.563,208.39,474.355C221.351,453.377,216.162,426.426,203.052,405.541C190.796,386.017,169.132,373.697,146.127,375.165C125.21,376.499,110.702,393.756,100.53,412.082C90.738,429.723,84.981,450.425,94.467,468.233C104.455,486.983,124.914,496.539,146.127,497.679" fill="rgba(243, 223, 162, 0.4)" class="triangle-float1"></path><path d="M854.267,382.372C899.269,384.411,946.583,370.146,969.608,331.427C993.047,292.013,986.72,241.148,960.711,203.38C937.709,169.979,894.758,161.66,854.267,163.94C818.247,165.968,785.852,183.703,766.741,214.302C746.302,247.027,737.891,287.514,755.713,321.736C774.808,358.403,812.968,380.501,854.267,382.372" fill="rgba(243, 223, 162, 0.4)" class="triangle-float1"></path><path d="M161.375,505.602C191.537,506.748,219.912,490.717,235.341,464.774C251.119,438.243,253.23,404.664,237.032,378.388C221.512,353.211,190.95,344.977,161.375,344.787C131.382,344.594,98.772,351.293,84.014,377.405C69.415,403.235,81.211,434.098,96.54,459.501C111.225,483.836,132.973,504.523,161.375,505.602" fill="rgba(243, 223, 162, 0.4)" class="triangle-float3"></path><path d="M-44.51780984826236 358.109746907867L87.04491101271783 383.68294925982366 112.61811336467444 252.12022839884344-18.944607496305743 226.54702604688683z" fill="rgba(243, 223, 162, 0.4)" class="triangle-float2"></path><path d="M1117.3101435795802 395.10729231492473L1062.3190172589811 329.5714199615487 996.783144905605 384.5625462821479 1051.7742712262043 450.09841863552384z" fill="rgba(243, 223, 162, 0.4)" class="triangle-float3"></path><path d="M844.8601622775686 192.34799926446016L785.3763329783887 80.47518724134915 673.5035209552777 139.959016540529 732.9873502544576 251.83182856364002z" fill="rgba(243, 223, 162, 0.4)" class="triangle-float2"></path><path d="M117.8239717270846 195.7013457205913L-21.652033990838362 150.38284431094468-66.97053540048498 289.85885002886766 72.50547031743798 335.1773514385143z" fill="rgba(243, 223, 162, 0.4)" class="triangle-float3"></path><path d="M662.7780133983242 423.9465237648917L718.8730432549993 269.82669589004405 508.65818552347656 367.85149390821664z" fill="rgba(243, 223, 162, 0.4)" class="triangle-float3"></path><path d="M598.4139589242506 90.23104364747218L544.7974296146488 210.655740165951 665.2221261331276 264.2722694755528 718.8386554427293 143.84757295707394z" fill="rgba(243, 223, 162, 0.4)" class="triangle-float2"></path><path d="M138.49937357393287 54.52681824030026L154.3388153780105 183.5287195184507 267.5012748520833 38.68737643622262z" fill="rgba(243, 223, 162, 0.4)" class="triangle-float2"></path><path d="M870.0793731330535 469.4865327964225L767.0081058463942 321.9865229653478 698.0525042575509 463.36645780136445z" fill="rgba(243, 223, 162, 0.4)" class="triangle-float2"></path><path d="M224.06888100393633 355.59419978084145L200.9664624734354 208.82612842157954 98.62113279204226 288.7870634417433z" fill="rgba(243, 223, 162, 0.4)" class="triangle-float2"></path><path d="M293.3359624519822 221.4151379018418L264.272463786818 386.24242949607117 429.0997553810473 415.3059281612354 458.1632540462116 250.47863656700602z" fill="rgba(243, 223, 162, 0.4)" class="triangle-float2"></path></g><defs><mask id="SvgjsMask1037"><rect width="1440" height="560" fill="#ffffff"></rect></mask><linearGradient x1="15.28%" y1="-39.29%" x2="84.72%" y2="139.29%" gradientUnits="userSpaceOnUse" id="SvgjsLinearGradient1038"><stop stop-color="rgba(35, 31, 32, 1)" offset="0"></stop><stop stop-color="rgba(187, 68, 48, 1)" offset="1"></stop></linearGradient><style>
            @keyframes float1 {
                0%{transform: translate(0, 0)}
                50%{transform: translate(-10px, 0)}
                100%{transform: translate(0, 0)}
            }

            .triangle-float1 {
                animation: float1 5s infinite;
            }

            @keyframes float2 {
                0%{transform: translate(0, 0)}
                50%{transform: translate(-5px, -5px)}
                100%{transform: translate(0, 0)}
            }

            .triangle-float2 {
                animation: float2 4s infinite;
            }

            @keyframes float3 {
                0%{transform: translate(0, 0)}
                50%{transform: translate(0, -10px)}
                100%{transform: translate(0, 0)}
            }

            .triangle-float3 {
                animation: float3 6s infinite;
            }
        </style></defs></svg>